<?xml version="1.0" encoding="UTF-8"?>
<svg xmlns="http://www.w3.org/2000/svg" xmlns:xlink="http://www.w3.org/1999/xlink" version="1.1" id="Capa_1" x="0px" y="0px" viewBox="0 0 512.007 512.007" style="enable-background:new 0 0 512.007 512.007;" xml:space="preserve" width="512" height="512">
<g>
	<g>
		<path style="fill:none;stroke:#000000;stroke-width:20;stroke-linecap:round;stroke-linejoin:round;stroke-miterlimit:10;" d="&#10;&#9;&#9;&#9;M104.281,502.003l16.845-16.845l29.804-1.613c15.776-0.854,30.681-7.505,41.852-18.677l29.168-29.168&#10;&#9;&#9;&#9;c10.333-10.333,10.333-27.087,0-37.42l-7.406-7.406l9.469-9.469c6.386-6.386,7.777-16.428,2.906-24.034&#10;&#9;&#9;&#9;c-6.666-10.407-20.991-11.136-29.374-3.166l6.248-6.248c7.41-7.41,7.41-19.424,0-26.834l0,0c-7.34-7.34-19.408-7.203-26.834,0&#10;&#9;&#9;&#9;c-0.07,0.068-8.678,8.678-8.747,8.747c7.41-7.41,7.41-19.424,0-26.834l0,0c-7.41-7.41-19.424-7.41-26.834,0l-12.655,12.655&#10;&#9;&#9;&#9;c7.41-7.41,7.41-19.424,0-26.834l0,0c-7.41-7.41-19.424-7.41-26.834,0L75.469,315.28l-16.051,16.051&#10;&#9;&#9;&#9;c-11.211,11.211-17.868,26.179-18.685,42.012l-1.543,29.878L10,432.411"/>
		
			<line style="fill:none;stroke:#000000;stroke-width:20;stroke-linecap:round;stroke-linejoin:round;stroke-miterlimit:10;" x1="186.487" y1="418.931" x2="214.544" y2="390.874"/>
	</g>
	<g>
		<path style="fill:none;stroke:#000000;stroke-width:20;stroke-linecap:round;stroke-linejoin:round;stroke-miterlimit:10;" d="&#10;&#9;&#9;&#9;M502.007,358.227c-2.515-4.087-5.497-7.906-8.909-11.372l-44.717-45.428c-10.251-10.415-27.005-10.547-37.419-0.295l-7.464,7.347&#10;&#9;&#9;&#9;l-36.752-37.201c-6.336-6.436-16.366-7.907-24.01-3.096c-10.459,6.583-11.302,20.903-3.397,29.348l-6.199-6.297&#10;&#9;&#9;&#9;c-7.351-7.468-19.365-7.563-26.833-0.212l0,0c-7.398,7.282-7.355,19.351-0.212,26.833c0.068,0.071,8.609,8.746,8.678,8.816&#10;&#9;&#9;&#9;c-7.351-7.468-19.365-7.563-26.833-0.212l0,0c-7.468,7.351-7.563,19.365-0.212,26.833l19.21,19.515&#10;&#9;&#9;&#9;c-7.351-7.468-19.365-7.563-26.833-0.212l0,0c-7.468,7.351-7.563,19.365-0.212,26.833l79.353,80.48&#10;&#9;&#9;&#9;c10.934,11.108,25.542,17.85,41.088,18.965l41.083,3.129"/>
		
			<line style="fill:none;stroke:#000000;stroke-width:20;stroke-linecap:round;stroke-linejoin:round;stroke-miterlimit:10;" x1="447.535" y1="353.217" x2="403.497" y2="308.479"/>
		
			<line style="fill:none;stroke:#000000;stroke-width:20;stroke-linecap:round;stroke-linejoin:round;stroke-miterlimit:10;" x1="300.284" y1="366.046" x2="344.873" y2="411.21"/>
		
			<line style="fill:none;stroke:#000000;stroke-width:20;stroke-linecap:round;stroke-linejoin:round;stroke-miterlimit:10;" x1="314.774" y1="326.671" x2="371.918" y2="384.589"/>
		
			<line style="fill:none;stroke:#000000;stroke-width:20;stroke-linecap:round;stroke-linejoin:round;stroke-miterlimit:10;" x1="339.339" y1="297.531" x2="398.962" y2="357.968"/>
	</g>
	<g>
		
			<line style="fill:none;stroke:#000000;stroke-width:20;stroke-linecap:round;stroke-linejoin:round;stroke-miterlimit:10;" x1="199.83" y1="103.05" x2="199.83" y2="130.481"/>
		<path style="fill:none;stroke:#000000;stroke-width:20;stroke-linecap:round;stroke-linejoin:round;stroke-miterlimit:10;" d="&#10;&#9;&#9;&#9;M199.217,10.003l-19.934,22.215c-10.551,11.759-16.387,27.001-16.387,42.8v29.002c0,14.614,11.847,26.46,26.46,26.46h10.474&#10;&#9;&#9;&#9;c0,6.646-0.744,13.271-2.217,19.751l-18.223,80.151c-2.328,10.241,3.607,20.789,13.742,23.543&#10;&#9;&#9;&#9;c10.698,2.906,21.658-3.714,24.06-14.54c0,0,20.606-90.052,20.64-89.933l22.22,90.245c2.607,10.588,13.457,16.921,23.958,13.982&#10;&#9;&#9;&#9;l0.012-0.003c10.213-2.857,16.285-13.336,13.686-23.617l-19.697-77.926c3.211,5.922,9.482,9.944,16.692,9.944h0&#10;&#9;&#9;&#9;c10.479,0,18.974-8.495,18.974-18.974v-18.896c0,10.479,8.495,18.974,18.974,18.974h0c10.479,0,18.974-8.495,18.974-18.974V75.14&#10;&#9;&#9;&#9;c0-11.023-2.847-21.771-8.148-31.257"/>
		<path style="fill:none;stroke:#000000;stroke-width:20;stroke-linecap:round;stroke-linejoin:round;stroke-miterlimit:10;" d="&#10;&#9;&#9;&#9;M278.008,152.134c-1.606-2.608-2.84-5.871-2.84-9.74v-5.017"/>
	</g>
	
		<line style="fill:none;stroke:#000000;stroke-width:20;stroke-linecap:round;stroke-linejoin:round;stroke-miterlimit:10;" x1="315.093" y1="10.003" x2="315.093" y2="10.003"/>
</g>















</svg>
